
<svg width="100" height="56" viewBox="0 0 100 56" fill="none" xmlns="http://www.w3.org/2000/svg">
<path fill-rule="evenodd" clip-rule="evenodd" d="M98.4327 0.612262C99.994 1.79033 100.469 4.27324 99.4927 6.1581C96.566 11.8124 93.088 16.9559 89.1347 21.436L97.1414 31.1031C98.4427 32.6747 98.4427 35.2231 97.1414 36.795C95.8394 38.3662 93.7287 38.3662 92.4274 36.795L84.0074 26.6287C78.6994 31.4152 72.726 35.112 66.225 37.4374L69.22 50.9325C69.696 53.08 68.6407 55.2863 66.8627 55.8618C65.0844 56.4373 63.2567 55.1631 62.7802 53.0156L59.7278 39.2605C56.5828 39.9084 53.3357 40.2457 50 40.2457C46.6643 40.2457 43.4171 39.9084 40.2721 39.2605L37.2199 53.0156C36.7435 55.1631 34.9158 56.4373 33.1375 55.8618C31.3593 55.2863 30.304 53.08 30.7804 50.9333L33.7749 37.4374C27.2741 35.112 21.3002 31.4151 15.9927 26.6285L7.57267 36.7942C6.27092 38.3662 4.16039 38.3662 2.85865 36.7942C1.55691 35.223 1.55691 32.6747 2.85865 31.103L10.8655 21.4359C6.91214 16.9558 3.43409 11.8124 0.507118 6.1581C-0.468578 4.27324 0.00599047 1.79033 1.56709 0.612262C3.1282 -0.565725 5.18469 0.00721002 6.16038 1.89207C9.35694 8.06711 13.26 13.5279 17.7489 18.0527C17.821 18.1192 17.8913 18.1896 17.9598 18.2641C26.7265 27.0079 37.7024 32.1966 50 32.1966C68.7187 32.1966 84.3754 20.1743 93.8394 1.89207C94.8154 0.00721002 96.872 -0.565725 98.4327 0.612262Z" fill="black"/>
</svg>
