<svg width="100" height="58" viewBox="0 0 100 58" fill="none" xmlns="http://www.w3.org/2000/svg">
<path d="M76.8989 23.1107L81.2853 15.0368C81.9056 13.8965 83.3372 13.4757 84.4648 14.0974C85.6037 14.7117 86.0298 16.136 85.4088 17.2802L81.027 25.3541C80.6003 26.1349 79.7983 26.5835 78.9633 26.5835C78.5768 26.5835 78.1943 26.489 77.8317 26.2935C76.704 25.6831 76.2786 24.2608 76.8989 23.1107ZM64.0673 18.9944C64.2615 19.0466 64.4498 19.0684 64.6374 19.0684C65.6897 19.0684 66.6436 18.3616 66.9178 17.2947L69.1599 8.37321C69.4717 7.11145 68.7153 5.83912 67.4549 5.52137C66.1409 5.22146 64.9155 5.97521 64.5977 7.22772L62.353 16.1479C62.0465 17.3997 62.8062 18.676 64.0673 18.9944ZM29.8782 13.8576C30.1484 14.9218 31.0997 15.6313 32.1547 15.6313C32.3429 15.6313 32.5398 15.6069 32.7281 15.5606C33.9898 15.2389 34.7449 13.9501 34.4338 12.7068L32.1765 3.78596C31.8554 2.53543 30.6293 1.72751 29.3227 2.07234C28.0609 2.39802 27.3052 3.6829 27.617 4.92617L29.8782 13.8576ZM48.0073 14.4303C49.3106 14.4303 50.3623 13.3747 50.3623 12.0719V2.90075C50.3623 1.60133 49.3073 0.545685 48.0073 0.545685C46.7111 0.545685 45.6575 1.60133 45.6575 2.90075V12.0713C45.6581 13.3747 46.7111 14.4303 48.0073 14.4303ZM99.2743 43.6708C100.208 44.5817 100.249 46.0641 99.3509 46.9929C98.8819 47.4805 98.2735 47.7163 97.6552 47.7163C97.0712 47.7163 96.4852 47.4957 96.0254 47.0616C95.9422 46.9711 92.6306 43.9026 87.5525 40.009C76.8738 47.7916 60.3507 57.4543 43.8818 57.4543C27.8389 57.4543 15.9824 48.3809 8.67539 40.63C6.00192 43.9456 4.42505 46.4684 4.37286 46.555C3.71886 47.6615 2.28138 48.0413 1.17553 47.4019C0.0491916 46.7578 -0.335942 45.3196 0.321362 44.1979C0.52681 43.8438 2.38642 40.844 5.48797 37.0409C2.37783 33.253 0.520204 30.2446 0.321362 29.8793C-0.335281 28.7595 0.0577795 27.3313 1.17553 26.6885C2.28138 26.0193 3.72216 26.4111 4.37286 27.5341C4.42505 27.6127 6.00126 30.1356 8.67539 33.4545C15.983 25.697 27.8396 16.6328 43.8818 16.6328C60.3507 16.6328 76.8738 26.2981 87.5525 34.0761C92.6312 30.1719 95.9422 27.1146 96.0254 27.0195C96.9826 26.1343 98.4472 26.1634 99.3509 27.0955C100.248 28.0395 100.208 29.5139 99.2743 30.4177C98.9222 30.7506 95.9363 33.5119 91.4448 37.0468C95.9363 40.5765 98.9275 43.3378 99.2743 43.6708ZM83.4818 37.0482C73.284 29.8112 58.3669 21.3383 43.8818 21.3383C29.4488 21.3383 18.5257 29.8984 11.8463 37.0482C18.5316 44.2072 29.4488 52.7581 43.8818 52.7581C58.3669 52.7581 73.284 44.2845 83.4818 37.0482ZM12.5274 24.017C12.9502 24.7999 13.7535 25.2392 14.5938 25.2392C14.9782 25.2392 15.3601 25.1546 15.7227 24.9591C16.8577 24.3407 17.2805 22.9112 16.6635 21.771L12.2757 13.699C11.6574 12.5582 10.2212 12.1103 9.0929 12.7537C7.95269 13.3753 7.5332 14.7976 8.15153 15.9418L12.5274 24.017ZM33.0795 37.1314C33.0795 43.6853 38.4034 48.9814 44.9586 48.9814C51.5144 48.9814 56.8184 43.68 56.8184 37.1314C56.8184 30.5557 51.5065 25.253 44.9586 25.253C38.4001 25.253 33.0795 30.5557 33.0795 37.1314Z" fill="black"/>
</svg>
