<svg width="20" height="12" viewBox="0 0 20 12" fill="none" xmlns="http://www.w3.org/2000/svg">
<path d="M9.99794 3.65476C10.5381 3.65476 11.073 3.76269 11.5721 3.97238C12.0712 4.18207 12.5247 4.48943 12.9067 4.87689C13.2886 5.26435 13.5916 5.72434 13.7984 6.23059C14.0051 6.73683 14.1115 7.27942 14.1115 7.82738C14.1115 8.37534 14.0051 8.91793 13.7984 9.42417C13.5916 9.93042 13.2886 10.3904 12.9067 10.7779C12.5247 11.1653 12.0712 11.4727 11.5721 11.6824C11.073 11.8921 10.5381 12 9.99794 12C8.90696 12 7.86067 11.5604 7.08923 10.7779C6.31779 9.99535 5.8844 8.93403 5.8844 7.82738C5.8844 6.72073 6.31779 5.65941 7.08923 4.87689C7.86067 4.09437 8.90696 3.65476 9.99794 3.65476ZM9.99794 5.2193C9.31603 5.2193 8.66205 5.49408 8.17986 5.98319C7.69768 6.4723 7.42679 7.13567 7.42679 7.82738C7.42679 8.51909 7.69768 9.18246 8.17986 9.67157C8.66205 10.1607 9.31603 10.4355 9.99794 10.4355C10.6799 10.4355 11.3338 10.1607 11.816 9.67157C12.2982 9.18246 12.5691 8.51909 12.5691 7.82738C12.5691 7.13567 12.2982 6.4723 11.816 5.98319C11.3338 5.49408 10.6799 5.2193 9.99794 5.2193ZM9.99794 0C14.7423 0 18.8358 3.28553 19.9725 7.88996C19.9997 7.9905 20.0068 8.09554 19.9934 8.1989C19.98 8.30226 19.9464 8.40187 19.8945 8.49185C19.8426 8.58184 19.7735 8.66039 19.6912 8.7229C19.6089 8.78541 19.5152 8.83061 19.4155 8.85585C19.3158 8.88108 19.2121 8.88585 19.1105 8.86985C19.009 8.85386 18.9116 8.81744 18.8241 8.76273C18.7366 8.70802 18.6608 8.63612 18.6011 8.55126C18.5414 8.4664 18.499 8.37029 18.4764 8.26858C17.9992 6.35401 16.9058 4.65573 15.3694 3.44277C13.8331 2.22982 11.9416 1.57155 9.99477 1.57227C8.04791 1.57299 6.15695 2.23265 4.62147 3.44674C3.08599 4.66083 1.99379 6.35992 1.51791 8.27484C1.46703 8.47479 1.34028 8.64622 1.16528 8.75174C0.990294 8.85727 0.781267 8.88833 0.58379 8.83815C0.386314 8.78797 0.216409 8.66062 0.11113 8.48387C0.00585164 8.30712 -0.0262596 8.09532 0.0217998 7.89466C0.579673 5.63931 1.86426 3.63761 3.67164 2.20734C5.47902 0.777062 7.70561 0.000172711 9.99794 0Z" fill="black"/>
</svg>
