<svg width="32" height="32" viewBox="0 0 32 32" fill="none" xmlns="http://www.w3.org/2000/svg">
<path d="M21.3475 4.32327L9.68378 8.19827C1.84336 10.8203 1.84336 15.0958 9.68378 17.7049L13.1454 18.8545L14.295 22.3162C16.9042 30.1566 21.1925 30.1566 23.8017 22.3162L27.6896 10.6653C29.4204 5.4341 26.5788 2.57952 21.3475 4.32327ZM21.7609 11.2724L16.8525 16.2066C16.6588 16.4003 16.4134 16.4908 16.1679 16.4908C15.9225 16.4908 15.6771 16.4003 15.4834 16.2066C15.1088 15.832 15.1088 15.212 15.4834 14.8374L20.3917 9.90327C20.7663 9.52868 21.3863 9.52868 21.7609 9.90327C22.1354 10.2779 22.1354 10.8979 21.7609 11.2724Z" fill="black"/>
</svg>
